<svg xmlns="http://www.w3.org/2000/svg" viewBox="0 0 595.3 183.6"><defs><style
    >      .st0 {        fill: #878787;      }      .st1 {        fill: #1e1e1c;      }    </style></defs><g
  ><polygon
      class="st1"
      points="218.4 58.5 193.6 58.5 193.6 35 128 35 128 96.3 193.6 96.3 193.6 69.9 218.4 69.9 218.4 96.3 231.9 96.3 231.9 35 218.4 35 218.4 58.5"
    /><path
      class="st1"
      d="M271.5,75.2c0,4.5-.7,7.8-2.2,9.7-1.5,2-3.9,3-7.2,3s-4.9-.9-6.1-2.7c-1.1-1.8-1.7-4.5-1.7-8.2v-25.1h-12.2v27.3c0,2.7.2,5.2.7,7.5.5,2.3,1.3,4.2,2.5,5.7,1.2,1.6,2.8,2.8,4.9,3.6,2.1.9,4.8,1.3,8,1.3s5.1-.6,7.6-1.7c2.5-1.1,4.5-3,6-5.6h.3v6.2h11.6v-44.4h-12.2v23.3Z"
    /><path
      class="st1"
      d="M323.6,57.9h-.2c-1.5-2.6-3.3-4.4-5.5-5.5-2.2-1.1-4.8-1.6-7.7-1.6s-5.8.6-8.2,1.8c-2.4,1.2-4.4,2.8-6,4.8-1.6,2-2.8,4.4-3.6,7-.8,2.7-1.2,5.4-1.2,8.3s.4,5.9,1.1,8.6c.7,2.7,1.8,5.1,3.4,7.1,1.5,2,3.5,3.6,5.9,4.8,2.4,1.2,5.3,1.8,8.6,1.8s5.2-.6,7.7-1.7c2.4-1.1,4.3-2.8,5.6-5.2h.2v5.8c0,3.1-.7,5.7-2.3,7.8-1.6,2.1-4.1,3.1-7.5,3.1s-4.1-.4-5.7-1.3c-1.7-.9-2.8-2.5-3.3-4.8h-12.1c.2,2.5.9,4.7,2.1,6.5,1.2,1.8,2.8,3.3,4.6,4.4,1.9,1.1,3.9,2,6.2,2.5,2.3.5,4.5.8,6.7.8,5.1,0,9.2-.7,12.2-2.1,3-1.4,5.3-3,7-5,1.6-2,2.6-4.1,3.1-6.4.5-2.3.7-4.3.7-6.1v-41.5h-11.6v5.9ZM322.9,78.1c-.4,1.5-1.1,2.8-1.9,3.9-.9,1.1-1.9,2.1-3.3,2.7-1.3.7-2.8,1-4.5,1s-3.5-.4-4.7-1.2c-1.3-.8-2.3-1.8-3-3.1-.8-1.3-1.3-2.7-1.6-4.2-.3-1.6-.5-3.2-.5-4.8s.2-3.2.6-4.8c.4-1.5,1-2.9,1.8-4,.8-1.2,1.9-2.1,3.1-2.8,1.2-.7,2.7-1,4.4-1s3.7.4,5,1.1c1.3.7,2.4,1.7,3.2,3,.8,1.3,1.4,2.7,1.7,4.3.3,1.6.5,3.4.5,5.2s-.2,3.1-.6,4.6Z"
    /><path
      class="st1"
      d="M373.9,75.2c0,4.5-.7,7.8-2.2,9.7-1.5,2-3.9,3-7.2,3s-4.9-.9-6.1-2.7c-1.1-1.8-1.7-4.5-1.7-8.2v-25.1h-12.2v27.3c0,2.7.2,5.2.7,7.5.5,2.3,1.3,4.2,2.5,5.7,1.2,1.6,2.8,2.8,4.9,3.6,2.1.9,4.8,1.3,8,1.3s5.1-.6,7.6-1.7c2.5-1.1,4.5-3,6-5.6h.3v6.2h11.6v-44.4h-12.2v23.3Z"
    /><path
      class="st1"
      d="M432.2,58.8c-1.8-2.5-4.1-4.4-6.9-5.9-2.8-1.5-6.1-2.2-9.9-2.2s-6.5.6-9.2,1.8c-2.8,1.2-5.2,2.8-7.2,4.9-2,2.1-3.5,4.6-4.6,7.4-1.1,2.9-1.6,6-1.6,9.3s.5,6.6,1.6,9.4c1.1,2.9,2.6,5.3,4.5,7.4,1.9,2.1,4.3,3.6,7.1,4.8s5.9,1.7,9.4,1.7c5,0,9.3-1.1,12.9-3.4,3.5-2.3,6.2-6.1,7.9-11.4h-10.7c-.4,1.4-1.5,2.7-3.3,3.9-1.8,1.2-3.9,1.8-6.3,1.8s-6.1-.9-7.9-2.7c-1.8-1.8-2.8-4.6-3-8.6h32c.2-3.4,0-6.7-.9-9.9-.8-3.1-2.1-5.9-3.9-8.4ZM405,69.4c0-.9.2-1.8.6-2.9.3-1.1.9-2.1,1.6-3.1.8-1,1.8-1.8,3.1-2.4,1.3-.7,2.9-1,4.8-1,3,0,5.2.8,6.6,2.4,1.5,1.6,2.5,3.9,3,7h-19.8Z"
    /><path
      class="st1"
      d="M468.1,60.1v-8.2h-8.9v-13.3h-12.2v13.3h-7.4v8.2h7.4v26.2c0,2.2.4,4,1.1,5.4.7,1.4,1.8,2.4,3,3.2,1.3.7,2.8,1.2,4.5,1.5,1.7.3,3.5.4,5.4.4s2.4,0,3.7,0c1.3,0,2.4-.2,3.4-.3v-9.4c-.6.1-1.2.2-1.8.3-.6,0-1.3,0-2,0-2.1,0-3.4-.3-4.1-1s-1-2.1-1-4.1v-22h8.9Z"
    /></g><g><path
      class="st0"
      d="M242,125.8h6.8v.8h-5.9v4.6h4.8v.8h-4.8v5h6.2v.8h-7.1v-11.9Z"
    /><path class="st0" d="M251.4,125.8h.9v11.1h5.8v.8h-6.7v-11.9Z" /><path
      class="st0"
      d="M264.4,125.8h.9v11.1h5.8v.8h-6.7v-11.9Z"
    /><path class="st0" d="M273.2,125.8h.9v11.1h5.8v.8h-6.7v-11.9Z" /><path
      class="st0"
      d="M282,125.8h6.8v.8h-5.9v4.6h4.8v.8h-4.8v5h6.2v.8h-7.1v-11.9Z"
    /><path
      class="st0"
      d="M291.4,125.8h1.3l6.6,10.6v-10.6h.9v11.9h-1.1l-6.8-10.9v10.9h-.9v-11.9Z"
    /><path
      class="st0"
      d="M302.6,131.8h0c0-3.6,2.4-6.2,5.7-6.2s4.3,1.1,4.8,3.5h-.9c-.4-2-1.9-2.8-3.8-2.8-2.9,0-4.7,2.2-4.7,5.3h0c0,3.3,1.7,5.4,4.8,5.4s4.2-1.7,4.2-4.3h0c0,0-3.7,0-3.7,0v-.8h4.6v.7c0,3.4-2,5.3-5.1,5.3s-5.7-2.5-5.7-6Z"
    /><path
      class="st0"
      d="M315.7,133.4v-7.6h.9v7.5c0,2.5,1.1,3.7,3.4,3.7s3.4-1.1,3.4-3.9v-7.3h.9v7.4c0,2.8-1.4,4.6-4.4,4.6s-4.3-1.5-4.3-4.4Z"
    /><path
      class="st0"
      d="M330,125.8h1.2l4.3,11.9h-.9l-1.3-3.6h-5.4l-1.3,3.6h-.9l4.3-11.9ZM328.2,133.3h4.8l-2.4-6.7-2.4,6.7Z"
    /><path
      class="st0"
      d="M339.1,126.6h-3.7v-.8h8.3v.8h-3.7v11.1h-.9v-11.1Z"
    /><path
      class="st0"
      d="M344.4,131.8h0c0-3.6,2.4-6.2,5.7-6.2s4.3,1.1,4.8,3.5h-.9c-.4-2-1.9-2.8-3.8-2.8-2.9,0-4.7,2.2-4.7,5.3h0c0,3.3,1.7,5.4,4.8,5.4s4.2-1.7,4.2-4.3h0c0,0-3.7,0-3.7,0v-.8h4.6v.7c0,3.4-2,5.3-5.1,5.3s-5.7-2.5-5.7-6Z"
    /><path
      class="st0"
      d="M357.7,125.8h6.8v.8h-5.9v4.6h4.8v.8h-4.8v5h6.2v.8h-7.1v-11.9Z"
    /><path
      class="st0"
      d="M371.2,125.8h3.1c3.9,0,5.9,2.5,5.9,5.8h0c0,3.4-1.9,6-5.9,6h-3.1v-11.9ZM374.2,136.9c3.4,0,5-2.1,5-5.2h0c0-3.1-1.5-5.2-5-5.2h-2.1v10.4h2.1Z"
    /><path
      class="st0"
      d="M382.6,125.8h6.8v.8h-5.9v4.6h4.8v.8h-4.8v5h6.2v.8h-7.1v-11.9Z"
    /><path class="st0" d="M396.1,125.8h.9v11.1h5.8v.8h-6.7v-11.9Z" /><path
      class="st0"
      d="M408.2,125.8h1.2l4.3,11.9h-.9l-1.3-3.6h-5.4l-1.3,3.6h-.9l4.3-11.9ZM406.4,133.3h4.8l-2.4-6.7-2.4,6.7Z"
    /><path
      class="st0"
      d="M422.6,126.6h-3.7v-.8h8.3v.8h-3.7v11.1h-.9v-11.1Z"
    /><path
      class="st0"
      d="M429.2,125.8h6.8v.8h-5.9v4.6h4.8v.8h-4.8v5h6.2v.8h-7.1v-11.9Z"
    /><path
      class="st0"
      d="M438.6,125.8h3.3c2.3,0,4,.9,4,3.2h0c0,2-1.3,3-3.1,3.2l3.8,5.5h-1l-3.7-5.4h-2.3v5.4h-.9v-11.9ZM441.9,131.5c1.9,0,3.1-.7,3.1-2.5h0c0-1.9-1.2-2.5-3.1-2.5h-2.4v5h2.4Z"
    /><path
      class="st0"
      d="M448.7,125.8h3.3c2.3,0,4,.9,4,3.2h0c0,2-1.3,3-3.1,3.2l3.8,5.5h-1l-3.7-5.4h-2.3v5.4h-.9v-11.9ZM452,131.5c1.9,0,3.1-.7,3.1-2.5h0c0-1.9-1.2-2.5-3.1-2.5h-2.4v5h2.4Z"
    /><path
      class="st0"
      d="M462.1,125.8h1.2l4.3,11.9h-.9l-1.3-3.6h-5.4l-1.3,3.6h-.9l4.3-11.9ZM460.2,133.3h4.8l-2.4-6.7-2.4,6.7Z"
    /></g></svg>
